<svg id="Layer" enable-background="new 0 0 512 512" height="512" viewBox="0 0 512 512" width="512" xmlns="http://www.w3.org/2000/svg"><circle cx="112" cy="136" r="24.005"/><circle cx="287.995" cy="136" r="24.005"/><path d="m491.132 206.597c-13.066-8.076-29.07-8.796-42.81-1.926-.292.146-.582.298-.868.457l-47.454 26.203v-1.331c0-14.474-5.833-27.76-15.309-37.537 9.724-16.589 15.309-35.885 15.309-56.463 0-61.757-50.243-112-112-112-35.657 0-67.474 16.75-88 42.794-20.526-26.044-52.343-42.794-88-42.794-61.757 0-112 50.243-112 112 0 20.578 5.585 39.874 15.309 56.463-9.476 9.777-15.309 23.063-15.309 37.537v204c0 29.776 24.225 54 54 54h292c29.775 0 54-24.224 54-54v-41.331l47.454 26.204c.286.158.576.31.868.457 6.263 3.131 12.993 4.685 19.704 4.685 8.013 0 15.995-2.217 23.105-6.611 13.068-8.077 20.869-22.069 20.869-37.43v-135.948c0-15.361-7.801-29.353-20.868-37.429zm-442.799 21.493c18.091 12.545 40.034 19.91 63.667 19.91 35.657 0 67.474-16.75 88-42.794 20.526 26.044 52.343 42.794 88 42.794 23.633 0 45.576-7.364 63.667-19.91.205.604.333 1.242.333 1.91v42 80 8h-304v-130c0-.668.129-1.306.333-1.91zm239.667-156.09c35.29 0 64 28.71 64 64s-28.71 64-64 64-64-28.71-64-64 28.71-64 64-64zm-176 0c35.29 0 64 28.71 64 64s-28.71 64-64 64-64-28.71-64-64 28.71-64 64-64zm234 368h-292c-3.309 0-6-2.691-6-6v-26h304v26c0 3.309-2.691 6-6 6zm118-66.823-64-35.34v-51.674l64-35.34z"/></svg>